<svg width="184" height="152" viewBox="0 0 184 152" fill="none" xmlns="http://www.w3.org/2000/svg">
<g clip-path="url(#clip0_328_7766)">
<path d="M43.9326 0.00821023C66.859 0.0164205 111.733 0.00410511 134.655 0C134.854 0 135.049 0.0205256 135.396 0.0410511C135.261 1.03449 135.142 1.94993 135.007 2.86126C134.621 5.48854 134.235 8.11581 133.841 10.739C133.455 13.3129 133.053 15.8868 132.671 18.4648C132.29 21.0428 131.942 23.6208 131.561 26.1947C131.137 29.056 130.679 31.9131 130.255 34.7744C129.874 37.3278 129.518 39.8853 129.14 42.4428C128.759 45.0208 128.365 47.5947 127.983 50.1686C127.657 52.3607 127.343 54.5528 127.017 56.7409C126.627 59.364 126.228 61.9831 125.839 64.6063C125.466 67.135 125.109 69.6638 124.732 72.1925C124.351 74.7705 123.944 77.3444 123.562 79.9224C123.185 82.4758 122.808 85.0292 122.465 87.5867C122.316 88.6828 122.359 88.6704 121.189 88.8634C114.297 89.9964 108.028 92.5621 102.412 96.5933C98.2243 99.5982 94.7233 103.235 91.9089 107.484C91.5359 108.047 91.129 108.248 90.4381 108.248C82.317 108.223 74.1959 108.227 66.0749 108.227C65.8036 108.227 65.5323 108.227 65.1169 108.227C69.4276 79.0973 73.7255 50.0701 78.0403 20.9032C77.6037 20.9032 77.3113 20.9032 77.0188 20.9032C73.3228 20.9032 44.5133 20.8868 40.8215 20.9114L43.9326 0.00821023Z" fill="url(#paint0_linear_328_7766)"/>
<path d="M97.7538 108.687C97.7538 108.687 119.926 109.516 126.063 113.626L121.392 117.489C121.392 117.489 151.906 124.044 164.151 130.793L148.756 117.595L126.233 107.694L108.715 102.484L97.758 108.687H97.7538Z" fill="#CCCCCC"/>
<path d="M184 138.917C183.89 138.823 183.424 138.868 182.75 139.003C180.219 139.516 174.743 141.298 174.268 141.413C166.296 143.441 158.87 146.68 151.024 149.053C149.901 149.389 148.731 149.705 147.514 150.001C131.908 153.749 109.3 153.244 99.6908 139.443C96.5331 134.902 94.4181 128.338 93.8628 122.903C93.8628 122.895 93.8628 122.895 93.8628 122.895C93.8628 122.895 83.8471 122.32 73.9077 133.047C73.9077 133.047 69.8217 131.828 69.4106 128.757C69.2919 127.899 69.4657 126.889 70.0972 125.719C70.0972 125.719 81.9864 110.875 119.252 115.912L115.162 120.563C115.162 120.563 118.29 120.563 123.545 121.072C132.234 121.918 146.735 124.167 162.536 130.165C162.536 130.165 162.544 130.165 162.549 130.169C163.083 130.37 163.621 130.576 164.155 130.789C163.744 130.534 153.334 124.167 134.634 118.383C131.768 117.497 128.716 116.626 125.466 115.793L130.221 111.778C130.221 111.778 127.347 110.818 122.588 109.906C116.632 108.765 107.723 107.702 97.7538 108.683C99.8349 105.419 110.325 90.4439 128.403 91.9792C138.257 92.8126 150.363 98.5638 164.587 113.794C170.674 120.313 177.15 128.564 184 138.913V138.917Z" fill="url(#paint1_linear_328_7766)"/>
<path style="mix-blend-mode:screen" opacity="0.3" d="M184 138.917C183.89 138.823 183.424 138.868 182.75 139.003C180.219 139.516 174.743 141.298 174.268 141.413C166.296 143.441 158.87 146.68 151.024 149.053C149.901 149.389 148.731 149.705 147.514 150.001C131.908 153.749 109.3 153.244 99.6908 139.443C96.5331 134.902 94.4181 128.338 93.8628 122.903C93.8628 122.895 93.8628 122.895 93.8628 122.895C93.8628 122.895 83.8471 122.32 73.9077 133.047C73.9077 133.047 69.8217 131.828 69.4106 128.757C69.2919 127.899 69.4657 126.889 70.0972 125.719C70.0972 125.719 81.9864 110.875 119.252 115.912L115.162 120.563C115.162 120.563 118.29 120.563 123.545 121.072C132.234 121.918 146.735 124.167 162.536 130.165C162.536 130.165 162.544 130.165 162.549 130.169C163.083 130.37 163.621 130.576 164.155 130.789C163.744 130.534 153.334 124.167 134.634 118.383C134.634 118.383 146.15 102.172 164.592 113.794C170.678 120.313 177.155 128.564 184.004 138.913L184 138.917Z" fill="url(#paint2_linear_328_7766)"/>
<path style="mix-blend-mode:screen" opacity="0.3" d="M117.84 99.7911C124.893 98.5431 132.048 104.179 132.048 104.179C117.751 99.3108 97.7538 108.687 97.7538 108.687C99.8349 105.423 110.325 90.4478 128.403 91.9831C142.475 93.1736 161.141 104.381 184.004 138.917C144.475 84.7828 117.845 99.7911 117.845 99.7911H117.84Z" fill="url(#paint3_linear_328_7766)"/>
<path style="mix-blend-mode:multiply" opacity="0.3" d="M182.754 139.004C180.223 139.517 174.747 141.298 174.272 141.413C166.3 143.441 158.874 146.68 151.028 149.053C149.905 149.39 148.735 149.706 147.519 150.001C131.912 153.749 109.304 153.244 99.6951 139.443C96.5374 134.903 94.4223 128.338 93.8671 122.903C94.1044 123.318 112.449 140.802 137.223 137.554C137.003 137.628 123.673 142.243 111.771 138.753C137.143 153.79 156.771 139.201 182.758 139.004H182.754Z" fill="url(#paint4_linear_328_7766)"/>
<path d="M117.84 99.7914C117.84 99.7914 131.798 93.8185 151.189 105.888C151.189 105.888 135.447 98.4285 117.84 99.7914Z" fill="url(#paint5_linear_328_7766)"/>
<path d="M132.048 104.179C132.048 104.179 117.416 99.6103 97.7538 108.687L106.244 108.301C106.244 108.301 118.9 102.077 132.048 104.179Z" fill="url(#paint6_linear_328_7766)"/>
<path d="M57.4621 115.629L70.3855 28.3867H16.026L0 136.589H91.5274L93.4136 123.921C93.4136 123.921 83.0715 123.843 74.5308 134.102C74.5308 134.102 66.7107 132.706 68.0034 125.645C68.0034 125.645 72.331 118.88 85.3137 115.793L57.4664 115.629H57.4621Z" fill="#F26522"/>
</g>
<defs>
<linearGradient id="paint0_linear_328_7766" x1="40.8215" y1="54.1218" x2="135.396" y2="54.1218" gradientUnits="userSpaceOnUse">
<stop stop-color="#808285"/>
<stop offset="1" stop-color="#6D6E71"/>
</linearGradient>
<linearGradient id="paint1_linear_328_7766" x1="139.34" y1="90.3668" x2="125.202" y2="141.442" gradientUnits="userSpaceOnUse">
<stop stop-color="#82C341"/>
<stop offset="1" stop-color="#187139"/>
</linearGradient>
<linearGradient id="paint2_linear_328_7766" x1="183.132" y1="139.158" x2="87.9243" y2="119.895" gradientUnits="userSpaceOnUse">
<stop stop-color="#F89521"/>
<stop offset="1" stop-color="#F36D21"/>
</linearGradient>
<linearGradient id="paint3_linear_328_7766" x1="149.342" y1="95.0977" x2="142.035" y2="121.489" gradientUnits="userSpaceOnUse">
<stop stop-color="#F89521"/>
<stop offset="1" stop-color="#F36D21"/>
</linearGradient>
<linearGradient id="paint4_linear_328_7766" x1="139.986" y1="125.238" x2="133.251" y2="149.569" gradientUnits="userSpaceOnUse">
<stop stop-color="#6CA041"/>
<stop offset="1" stop-color="#3A803D"/>
</linearGradient>
<linearGradient id="paint5_linear_328_7766" x1="151.518" y1="104.238" x2="118.295" y2="97.5186" gradientUnits="userSpaceOnUse">
<stop stop-color="#82C341"/>
<stop offset="1" stop-color="#187139"/>
</linearGradient>
<linearGradient id="paint6_linear_328_7766" x1="130.978" y1="109.446" x2="98.9064" y2="102.958" gradientUnits="userSpaceOnUse">
<stop stop-color="#82C341"/>
<stop offset="1" stop-color="#187139"/>
</linearGradient>
<clipPath id="clip0_328_7766">
<rect width="184" height="152" fill="white"/>
</clipPath>
</defs>
</svg>
