<?xml version="1.0" encoding="utf-8"?>
<!-- Generator: Adobe Illustrator 28.3.0, SVG Export Plug-In . SVG Version: 6.00 Build 0)  -->
<svg version="1.1" id="Layer_1" xmlns="http://www.w3.org/2000/svg" xmlns:xlink="http://www.w3.org/1999/xlink" x="0px" y="0px"
	 viewBox="0 0 1000 431.1" style="enable-background:new 0 0 1000 431.1;" xml:space="preserve">
<style type="text/css">
	.st0{fill:#FFFFFF;}
	.st1{fill:#FF6C0C;}
</style>
<g>
	<path class="st0" d="M1.6,382.8v-102h28.9V360h48.7v22.9H1.6V382.8z M87.7,382.8v-79h27.7v79H87.7z M101.5,295.1
		c-5.1,0-9.1-1.4-12.2-4.2c-3.1-2.8-4.7-6.3-4.7-10.5s1.6-7.7,4.7-10.5s7.2-4.2,12.2-4.2s9.1,1.4,12.2,4.1c3.1,2.6,4.7,6,4.7,10.2
		c0,4.4-1.6,8-4.7,10.9C110.7,293.6,106.7,295.1,101.5,295.1z M135,382.8v-78.2c0-9.5,2.8-17.1,8.5-22.7c5.7-5.7,13.9-8.6,24.5-8.6
		c3.4,0,6.8,0.3,10.1,1s6.1,1.7,8.3,3.1l-6.9,19.5c-1.2-0.7-2.5-1.2-3.9-1.6c-1.5-0.5-2.9-0.7-4.4-0.7c-2.9,0-5.2,0.9-6.9,2.6
		c-1.6,1.7-2.3,4.2-2.3,7.7v5.7l0.7,11.5v60.7H135z M123.5,327.4v-20.7h57.3v20.7H123.5z M224.7,384.2c-10.1,0-18-2.5-23.6-7.4
		c-5.6-5.1-8.5-12.6-8.5-22.7v-67.8h27.7v67.5c0,2.8,0.8,5.1,2.3,6.7c1.6,1.6,3.5,2.3,6,2.3c3.3,0,6.1-0.8,8.5-2.5l6.9,19.4
		c-2.3,1.6-5.2,2.7-8.6,3.4C231.9,383.8,228.4,384.2,224.7,384.2z M181.1,327.4v-20.7h57.3v20.7H181.1z M290.4,384.2
		c-8.7,0-16.3-1.7-23-5.2s-12-8.3-15.9-14.4c-3.8-6.2-5.7-13.3-5.7-21.3s1.9-15,5.7-21.1c3.9-6.1,9.2-10.9,15.9-14.3
		c6.7-3.5,14.4-5.2,23-5.2s16.3,1.7,23,5.2c6.8,3.4,12.1,8.2,15.9,14.3c3.8,6.1,5.7,13.2,5.7,21.1s-1.9,15.1-5.7,21.3
		c-3.8,6.1-9.1,10.9-15.9,14.4C306.7,382.4,299.1,384.2,290.4,384.2z M290.4,362.1c3.2,0,6-0.7,8.5-2.2s4.5-3.6,6-6.4
		c1.5-2.9,2.2-6.4,2.2-10.4s-0.7-7.3-2.2-10.1c-1.5-2.8-3.5-5-6-6.4c-2.4-1.5-5.2-2.2-8.5-2.2c-3.1,0-5.9,0.7-8.5,2.2
		c-2.4,1.5-4.4,3.6-6,6.4c-1.5,2.7-2.2,6.1-2.2,10.1s0.7,7.4,2.2,10.4c1.6,2.8,3.5,5,6,6.4C284.5,361.4,287.3,362.1,290.4,362.1z
		 M362.9,382.8l-28.1-79H361l22.3,66.1h-12.5l23.2-66.1h23.6l22.3,66.1h-12.2l23-66.1h24.4l-28.1,79h-26.8l-19-54.7h8.2l-19.5,54.7
		H362.9z M550.6,320.3H598v21.6h-47.4V320.3z M552.7,360.5H606v22.3h-82v-102h80.1v22.3h-51.5v57.4H552.7z M614.4,351.9v-21.3H657
		v21.3H614.4z M672.6,382.8v-102h52.2c13.4,0,23.4,2.5,30,7.4s9.9,11.3,9.9,19.2c0,5.2-1.4,9.9-4.2,13.9c-2.7,3.9-6.6,7-11.7,9.3
		c-5,2.2-10.9,3.4-17.8,3.4l2.9-7c7.2,0,13.5,1.1,18.8,3.4c5.3,2.1,9.5,5.3,12.4,9.5c3,4.1,4.5,9.1,4.5,15c0,8.8-3.6,15.7-10.8,20.7
		c-7.1,4.9-17.5,7.3-31.2,7.3L672.6,382.8L672.6,382.8z M701.1,362h24.2c5,0,8.7-0.8,11.2-2.5c2.6-1.7,3.9-4.4,3.9-7.9
		s-1.3-6.1-3.9-7.7c-2.5-1.7-6.3-2.6-11.2-2.6h-26.2v-20H721c4.9,0,8.5-0.8,10.9-2.5s3.6-4.1,3.6-7.4s-1.2-5.7-3.6-7.3
		c-2.4-1.7-6.1-2.5-10.9-2.5h-19.8V362H701.1z M781.7,382.8v-79h27.7v79H781.7z M795.6,295.1c-5.1,0-9.1-1.4-12.2-4.2
		c-3.1-2.8-4.7-6.3-4.7-10.5s1.6-7.7,4.7-10.5s7.2-4.2,12.2-4.2s9.1,1.4,12.2,4.1c3.1,2.6,4.7,6,4.7,10.2c0,4.4-1.6,8-4.7,10.9
		C804.8,293.6,800.7,295.1,795.6,295.1z M848.9,368.3l0.7-33.1l32.2-31.4h32.8l-35.7,36.9l-14.1,11.4L848.9,368.3z M825.8,382.8
		V274.6h27.7v108.2H825.8z M883.9,382.8l-24.2-30.3l17.2-21.3l40.5,51.6L883.9,382.8L883.9,382.8z M962.2,384.2
		c-9.3,0-17.5-1.7-24.5-5.2c-6.9-3.6-12.3-8.5-16.2-14.6c-3.8-6.2-5.7-13.3-5.7-21.1s1.8-14.9,5.5-21c3.8-6.2,9-11,15.6-14.4
		c6.6-3.5,14-5.2,22.3-5.2c7.8,0,14.9,1.6,21.3,4.8c6.4,3.1,11.5,7.7,15.3,13.9c3.8,6.1,5.7,13.6,5.7,22.3c0,1,0,2.1-0.1,3.4
		s-0.2,2.4-0.3,3.5h-62.6V336h47.8l-10.5,4.1c0.1-3.6-0.6-6.7-2-9.3c-1.4-2.6-3.3-4.7-5.8-6.1c-2.4-1.5-5.3-2.2-8.6-2.2
		s-6.2,0.7-8.7,2.2c-2.4,1.5-4.3,3.5-5.7,6.3c-1.4,2.6-2,5.7-2,9.3v4.2c0,3.9,0.8,7.2,2.3,10.1c1.7,2.8,4,5,7,6.6
		c3,1.5,6.6,2.2,10.8,2.2c3.9,0,7.2-0.5,9.9-1.6c2.8-1.2,5.6-2.9,8.3-5.2l14.6,15.2c-3.8,4.2-8.5,7.4-14,9.6
		C976.3,383.1,969.8,384.2,962.2,384.2z"/>
	<path class="st1" d="M329.4,210.7L286.6,78.8H325L361,193h-19.4l37.9-114.1h34.3L449.5,193h-18.6L468,78.8h35.6l-42.8,131.9h-39.9
		l-30.5-97h10.7l-31.8,97H329.4z M514.9,210.7V78.8h37.3v131.9H514.9z M576.7,210.7V78.8h30.7l72.7,87.8h-14.5V78.8h36.5v131.9
		h-30.7l-72.7-87.8h14.5v87.8H576.7z"/>
	<path class="st0" d="M427.2,60.8v-9l0.9,2.6l-9.9-16.3h4.5l7.9,13.1h-2.5l8-13.1h4.1l-9.9,16.3l1-2.6v9H427.2z M448.1,61
		c-1.8,0-3.4-0.4-4.7-1.1c-1.4-0.8-2.5-1.8-3.3-3.2c-0.8-1.3-1.2-2.9-1.2-4.6c0-1.7,0.4-3.3,1.2-4.6c0.8-1.3,1.9-2.4,3.3-3.1
		c1.4-0.8,3-1.1,4.7-1.1c1.8,0,3.4,0.4,4.8,1.1c1.4,0.8,2.5,1.8,3.3,3.1s1.2,2.9,1.2,4.6c0,1.7-0.4,3.2-1.2,4.6
		c-0.8,1.3-1.9,2.4-3.3,3.2S449.9,61,448.1,61z M448.1,57.6c1,0,1.9-0.2,2.7-0.6c0.8-0.4,1.4-1.1,1.8-1.9c0.5-0.8,0.7-1.8,0.7-2.9
		c0-1.1-0.2-2.1-0.7-2.9c-0.4-0.8-1-1.4-1.8-1.9c-0.8-0.4-1.7-0.6-2.6-0.6c-1,0-1.9,0.2-2.7,0.6c-0.8,0.4-1.4,1.1-1.8,1.9
		c-0.5,0.8-0.7,1.8-0.7,2.9c0,1.1,0.2,2.1,0.7,2.9c0.5,0.8,1.1,1.4,1.8,1.9C446.3,57.3,447.2,57.6,448.1,57.6z M468.2,61
		c-1.5,0-2.8-0.3-3.9-0.8c-1.1-0.6-2-1.4-2.6-2.5s-0.9-2.6-0.9-4.3v-9.9h4.1v9.3c0,1.6,0.3,2.7,1,3.5s1.7,1.1,3,1.1
		c1,0,1.8-0.2,2.5-0.6c0.7-0.4,1.3-1,1.7-1.7c0.4-0.8,0.6-1.7,0.6-2.9v-8.7h4.1v17.3h-3.9v-4.7l0.7,1.4c-0.6,1.1-1.4,2-2.6,2.6
		C470.8,60.7,469.6,61,468.2,61z M499.1,61c-1.8,0-3.4-0.4-4.9-1.1c-1.4-0.8-2.5-1.8-3.3-3.2c-0.8-1.3-1.2-2.9-1.2-4.6
		c0-1.7,0.4-3.3,1.2-4.6c0.8-1.3,1.9-2.4,3.3-3.1c1.4-0.8,3-1.1,4.9-1.1c1.7,0,3.2,0.3,4.4,1c1.3,0.7,2.3,1.7,2.9,3l-3.1,1.8
		c-0.5-0.8-1.2-1.4-1.9-1.8c-0.7-0.4-1.5-0.6-2.4-0.6c-1,0-1.9,0.2-2.7,0.6c-0.8,0.4-1.4,1.1-1.9,1.9c-0.5,0.8-0.7,1.8-0.7,2.9
		c0,1.1,0.2,2.1,0.7,2.9c0.5,0.8,1.1,1.4,1.9,1.8c0.8,0.4,1.7,0.6,2.7,0.6c0.9,0,1.7-0.2,2.4-0.6c0.8-0.4,1.4-1,1.9-1.8l3.1,1.8
		c-0.7,1.3-1.7,2.3-2.9,3C502.3,60.7,500.8,61,499.1,61z M517.2,61c-1.8,0-3.3-0.4-4.7-1.1c-1.4-0.8-2.5-1.8-3.3-3.2
		c-0.8-1.3-1.2-2.9-1.2-4.6c0-1.7,0.4-3.3,1.2-4.6c0.8-1.3,1.9-2.4,3.3-3.1c1.4-0.8,3-1.1,4.7-1.1c1.8,0,3.4,0.4,4.8,1.1
		c1.4,0.8,2.5,1.8,3.3,3.1s1.2,2.9,1.2,4.6c0,1.7-0.4,3.2-1.2,4.6c-0.8,1.3-1.9,2.4-3.3,3.2C520.6,60.7,519,61,517.2,61z
		 M517.2,57.6c1,0,1.9-0.2,2.7-0.6c0.8-0.4,1.4-1.1,1.8-1.9c0.5-0.8,0.7-1.8,0.7-2.9c0-1.1-0.2-2.1-0.7-2.9c-0.4-0.8-1-1.4-1.8-1.9
		c-0.8-0.4-1.7-0.6-2.6-0.6c-1,0-1.9,0.2-2.7,0.6c-0.8,0.4-1.4,1.1-1.8,1.9c-0.5,0.8-0.7,1.8-0.7,2.9c0,1.1,0.2,2.1,0.7,2.9
		c0.5,0.8,1.1,1.4,1.8,1.9C515.3,57.3,516.2,57.6,517.2,57.6z M537.3,61c-1.5,0-2.8-0.3-3.9-0.8c-1.1-0.6-2-1.4-2.6-2.5
		s-0.9-2.6-0.9-4.3v-9.9h4.1v9.3c0,1.6,0.3,2.7,1,3.5s1.7,1.1,3,1.1c1,0,1.8-0.2,2.5-0.6c0.7-0.4,1.3-1,1.7-1.7
		c0.4-0.8,0.6-1.7,0.6-2.9v-8.7h4.1v17.3H543v-4.7l0.7,1.4c-0.6,1.1-1.4,2-2.6,2.6C539.8,60.7,538.6,61,537.3,61z M551.7,60.8v-24
		h4.1v24H551.7z M568,61c-1.7,0-3.2-0.4-4.5-1.1c-1.3-0.8-2.4-1.8-3.1-3.1c-0.8-1.3-1.1-2.9-1.1-4.7s0.4-3.3,1.1-4.7
		c0.8-1.3,1.8-2.3,3.1-3.1c1.3-0.7,2.8-1.1,4.5-1.1c1.4,0,2.7,0.3,3.9,1c1.1,0.6,2.1,1.6,2.7,2.9c0.7,1.3,1,3,1,5s-0.3,3.7-1,5
		c-0.6,1.3-1.5,2.3-2.7,2.9C570.8,60.7,569.5,61,568,61z M568.5,57.6c1,0,1.8-0.2,2.6-0.6c0.8-0.4,1.4-1.1,1.8-1.9
		c0.5-0.8,0.7-1.8,0.7-2.9c0-1.1-0.2-2.1-0.7-2.9c-0.5-0.8-1.1-1.4-1.8-1.9c-0.8-0.4-1.6-0.6-2.6-0.6s-1.8,0.2-2.6,0.6
		c-0.8,0.4-1.4,1.1-1.8,1.9c-0.5,0.8-0.7,1.8-0.7,2.9c0,1.1,0.2,2.1,0.7,2.9c0.5,0.8,1.1,1.4,1.8,1.9
		C566.6,57.3,567.5,57.6,568.5,57.6z M573.7,60.8v-4.1l0.2-4.6l-0.3-4.6V36.8h4v24H573.7z"/>
	<path class="st0" d="M401.1,265.6c-1.8,0-3.3-0.4-4.7-1.1c-1.4-0.8-2.5-1.8-3.3-3.2c-0.8-1.3-1.2-2.9-1.2-4.6
		c0-1.7,0.4-3.3,1.2-4.6c0.8-1.3,1.9-2.4,3.3-3.1c1.4-0.8,3-1.1,4.7-1.1c1.8,0,3.4,0.4,4.8,1.1c1.4,0.8,2.5,1.8,3.3,3.1
		s1.2,2.9,1.2,4.6s-0.4,3.2-1.2,4.6c-0.8,1.3-1.9,2.4-3.3,3.2C404.5,265.2,402.9,265.6,401.1,265.6z M401.1,262.1
		c1,0,1.9-0.2,2.7-0.6c0.8-0.4,1.4-1.1,1.8-1.9c0.5-0.8,0.7-1.8,0.7-2.9s-0.2-2.1-0.7-2.9c-0.4-0.8-1-1.4-1.8-1.9
		c-0.8-0.4-1.7-0.6-2.6-0.6c-1,0-1.9,0.2-2.7,0.6c-0.8,0.4-1.4,1.1-1.8,1.9c-0.5,0.8-0.7,1.8-0.7,2.9c0,1.1,0.2,2.1,0.7,2.9
		s1.1,1.4,1.8,1.9C399.2,261.9,400.1,262.1,401.1,262.1z M421.2,265.6c-1.5,0-2.8-0.3-3.9-0.8c-1.1-0.6-2-1.4-2.6-2.5
		s-0.9-2.6-0.9-4.3v-9.9h4.1v9.3c0,1.6,0.3,2.7,1,3.5s1.7,1.1,3,1.1c0.9,0,1.8-0.2,2.5-0.6s1.3-1,1.7-1.7c0.4-0.8,0.6-1.7,0.6-2.9
		v-8.7h4.1v17.3h-3.9v-4.7l0.7,1.4c-0.6,1.1-1.4,2-2.6,2.6C423.7,265.3,422.5,265.6,421.2,265.6z M435.5,265.4v-17.3h3.9v4.8
		l-0.5-1.4c0.5-1.2,1.3-2.1,2.4-2.7c1.1-0.6,2.5-0.9,4.2-0.9v3.9c-0.2,0-0.3-0.1-0.5-0.1c-0.1,0-0.3,0-0.5,0c-1.5,0-2.8,0.5-3.7,1.4
		c-0.9,0.9-1.4,2.2-1.4,4v8.4L435.5,265.4L435.5,265.4z M465.5,265.6c-1.9,0-3.6-0.4-5.1-1.1c-1.4-0.8-2.5-1.8-3.3-3.2
		c-0.8-1.3-1.2-2.9-1.2-4.6c0-1.7,0.4-3.3,1.1-4.6c0.8-1.3,1.8-2.4,3.2-3.1c1.4-0.8,2.9-1.1,4.6-1.1s3.2,0.4,4.5,1.1
		c1.3,0.7,2.4,1.8,3.1,3.1c0.8,1.3,1.1,2.9,1.1,4.7c0,0.2,0,0.4,0,0.6s0,0.4,0,0.6h-14.4v-2.7h12.3l-1.6,0.8c0-1-0.2-1.9-0.6-2.6
		c-0.4-0.8-1-1.4-1.8-1.8c-0.7-0.4-1.6-0.6-2.6-0.6s-1.9,0.2-2.6,0.6c-0.7,0.4-1.3,1-1.7,1.8c-0.4,0.8-0.6,1.7-0.6,2.7v0.6
		c0,1,0.2,2,0.7,2.8s1.1,1.4,2,1.8s1.9,0.6,3,0.6c1,0,1.8-0.2,2.6-0.5s1.5-0.8,2.1-1.4l2.2,2.5c-0.8,0.9-1.8,1.6-2.9,2.1
		C468.4,265.4,467,265.6,465.5,265.6z M474.3,265.4l7.6-9.9l-0.1,2.2l-7.3-9.6h4.5l5.1,6.8h-1.7l5.1-6.8h4.4l-7.3,9.6v-2.2l7.6,9.9
		h-4.6l-5.3-7.2l1.7,0.2l-5.2,7L474.3,265.4L474.3,265.4z M502.3,265.6c-1.8,0-3.4-0.4-4.9-1.1c-1.4-0.8-2.5-1.8-3.3-3.2
		c-0.8-1.3-1.2-2.9-1.2-4.6c0-1.7,0.4-3.3,1.2-4.6c0.8-1.3,1.9-2.4,3.3-3.1c1.4-0.8,3-1.1,4.9-1.1c1.7,0,3.2,0.3,4.4,1
		c1.3,0.7,2.3,1.7,2.9,3l-3.1,1.8c-0.5-0.8-1.2-1.4-1.9-1.8c-0.7-0.4-1.5-0.6-2.4-0.6c-1,0-1.9,0.2-2.7,0.6
		c-0.8,0.4-1.4,1.1-1.9,1.9c-0.5,0.8-0.7,1.8-0.7,2.9c0,1.1,0.2,2.1,0.7,2.9s1.1,1.4,1.9,1.8s1.7,0.6,2.7,0.6c0.9,0,1.7-0.2,2.4-0.6
		c0.8-0.4,1.4-1,1.9-1.8l3.1,1.8c-0.7,1.3-1.7,2.3-2.9,3C505.5,265.3,504,265.6,502.3,265.6z M512.7,265.4v-24h4.1v24H512.7z
		 M529,265.6c-1.5,0-2.8-0.3-3.9-0.8c-1.1-0.6-2-1.4-2.6-2.5s-0.9-2.6-0.9-4.3v-9.9h4.1v9.3c0,1.6,0.3,2.7,1,3.5s1.7,1.1,3,1.1
		c0.9,0,1.8-0.2,2.5-0.6s1.3-1,1.7-1.7c0.4-0.8,0.6-1.7,0.6-2.9v-8.7h4.1v17.3h-3.9v-4.7l0.7,1.4c-0.6,1.1-1.4,2-2.6,2.6
		C531.6,265.3,530.4,265.6,529,265.6z M548.7,265.6c-1.4,0-2.8-0.2-4.2-0.6c-1.3-0.4-2.4-0.9-3.1-1.4l1.6-3.1
		c0.8,0.5,1.7,0.9,2.8,1.2c1.1,0.3,2.2,0.5,3.2,0.5c1.3,0,2.2-0.2,2.8-0.5s0.9-0.8,0.9-1.4c0-0.5-0.2-0.8-0.6-1.1
		c-0.4-0.3-0.9-0.5-1.5-0.6s-1.3-0.2-2.1-0.4c-0.8-0.1-1.5-0.2-2.3-0.4c-0.8-0.2-1.4-0.5-2.1-0.8c-0.6-0.4-1.1-0.9-1.5-1.5
		s-0.6-1.4-0.6-2.4c0-1.1,0.3-2.1,0.9-2.9c0.6-0.8,1.5-1.4,2.6-1.9s2.5-0.7,4.1-0.7c1.2,0,2.3,0.1,3.5,0.4c1.2,0.3,2.2,0.6,2.9,1.1
		l-1.6,3.1c-0.8-0.5-1.7-0.8-2.5-1s-1.6-0.3-2.5-0.3c-1.2,0-2.2,0.2-2.8,0.6c-0.6,0.4-0.9,0.8-0.9,1.4c0,0.5,0.2,0.9,0.6,1.2
		c0.4,0.3,0.9,0.5,1.5,0.6c0.6,0.2,1.3,0.3,2.1,0.4c0.8,0.1,1.5,0.2,2.3,0.4s1.4,0.5,2.1,0.8c0.6,0.3,1.2,0.8,1.6,1.4
		c0.4,0.6,0.6,1.4,0.6,2.4c0,1.1-0.3,2-1,2.8c-0.6,0.8-1.5,1.4-2.7,1.9C551.8,265.4,550.4,265.6,548.7,265.6z M559.7,265.4v-17.3
		h4.1v17.3H559.7z M561.8,245.2c-0.8,0-1.4-0.2-1.9-0.7s-0.7-1-0.7-1.7s0.2-1.3,0.7-1.7c0.5-0.5,1.1-0.7,1.9-0.7
		c0.8,0,1.4,0.2,1.8,0.7c0.5,0.4,0.7,1,0.7,1.7s-0.2,1.3-0.7,1.8C563.2,245,562.5,245.2,561.8,245.2z M573.3,265.4l-7.4-17.3h4.2
		l6.4,15.3h-2.1l6.6-15.3h3.9l-7.4,17.3H573.3z M594.8,265.6c-1.9,0-3.6-0.4-5.1-1.1c-1.4-0.8-2.5-1.8-3.3-3.2
		c-0.8-1.3-1.2-2.9-1.2-4.6c0-1.7,0.4-3.3,1.1-4.6c0.8-1.3,1.8-2.4,3.2-3.1c1.4-0.8,2.9-1.1,4.6-1.1c1.7,0,3.2,0.4,4.5,1.1
		c1.3,0.7,2.4,1.8,3.1,3.1c0.8,1.3,1.1,2.9,1.1,4.7c0,0.2,0,0.4,0,0.6s0,0.4,0,0.6h-14.4v-2.7h12.3l-1.6,0.8c0-1-0.2-1.9-0.6-2.6
		c-0.4-0.8-1-1.4-1.8-1.8c-0.7-0.4-1.6-0.6-2.6-0.6s-1.9,0.2-2.6,0.6c-0.7,0.4-1.3,1-1.7,1.8s-0.6,1.7-0.6,2.7v0.6
		c0,1,0.2,2,0.7,2.8s1.1,1.4,2,1.8s1.9,0.6,3,0.6c1,0,1.8-0.2,2.6-0.5s1.5-0.8,2.1-1.4l2.2,2.5c-0.8,0.9-1.8,1.6-2.9,2.1
		C597.6,265.4,596.3,265.6,594.8,265.6z"/>
</g>
</svg>
